<svg id="SvgjsSvg12679" width="120" height="70" xmlns="http://www.w3.org/2000/svg" version="1.1"
  xmlns:xlink="http://www.w3.org/1999/xlink" xmlns:svgjs="http://svgjs.dev"
  class="apexcharts-svg apexcharts-zoomable" xmlns:data="ApexChartsNS" transform="translate(0, 0)"
  style="background: transparent;">
  <rect id="SvgjsRect12684" width="0" height="0" x="0" y="0" rx="0" ry="0" opacity="1"
    stroke-width="0" stroke="none" stroke-dasharray="0" fill="#fefefe"></rect>
  <g id="SvgjsG12681" class="apexcharts-inner apexcharts-graphical" transform="translate(22, 30)">
    <defs id="SvgjsDefs12680">
      <clipPath id="gridRectMarkerMaskgu994ipe">
        <rect id="SvgjsRect12689" width="92" height="29" x="-2" y="-2" rx="0" ry="0" opacity="1"
          stroke-width="0" stroke="none" stroke-dasharray="0" fill="#fff"></rect>
      </clipPath>
      <linearGradient id="SvgjsLinearGradient12694" x1="0" y1="0" x2="0" y2="1">
        <stop id="SvgjsStop12695" stop-opacity="0.65" stop-color="rgba(251,84,84,0.65)" offset="0"></stop>
        <stop id="SvgjsStop12696" stop-opacity="0.5" stop-color="rgba(253,170,170,0.5)" offset="1"></stop>
        <stop id="SvgjsStop12697" stop-opacity="0.5" stop-color="rgba(253,170,170,0.5)" offset="1"></stop>
      </linearGradient>
    </defs>
    <g id="SvgjsG12690" class="apexcharts-area-series apexcharts-plot-series">
      <g id="SvgjsG12691" class="apexcharts-series" zIndex="0" seriesName="NewxSales"
        data:longestSeries="true" rel="1" data:realIndex="0">
        <path id="SvgjsPath12698"
          d="M 0 25 L 0 10C 3.6959999999999997 10 6.864000000000001 5.833333333333332 10.56 5.833333333333332C 13.024000000000001 5.833333333333332 15.136000000000001 9.166666666666668 17.6 9.166666666666668C 20.064 9.166666666666668 22.176000000000002 4.166666666666668 24.64 4.166666666666668C 27.104 4.166666666666668 29.216 14.333333333333332 31.68 14.333333333333332C 34.144 14.333333333333332 36.256 19.416666666666664 38.72 19.416666666666664C 41.184 19.416666666666664 43.296 10.416666666666668 45.76 10.416666666666668C 48.224000000000004 10.416666666666668 50.336 19.083333333333336 52.800000000000004 19.083333333333336C 55.264 19.083333333333336 57.376000000000005 12.583333333333332 59.84 12.583333333333332C 62.304 12.583333333333332 64.416 18.25 66.88 18.25C 69.344 18.25 71.456 19.583333333333336 73.92 19.583333333333336C 76.384 19.583333333333336 78.49600000000001 14 80.96000000000001 14C 83.424 14 85.536 22.416666666666664 88 22.416666666666664C 88 22.416666666666664 88 22.416666666666664 88 25M 88 22.416666666666664z"
          fill="url(#SvgjsLinearGradient12694)" fill-opacity="1" stroke-opacity="1"
          stroke-linecap="butt" stroke-width="0" stroke-dasharray="0" class="apexcharts-area"
          index="0" clip-path="url(#gridRectMaskgu994ipe)"
          pathTo="M 0 25 L 0 10C 3.6959999999999997 10 6.864000000000001 5.833333333333332 10.56 5.833333333333332C 13.024000000000001 5.833333333333332 15.136000000000001 9.166666666666668 17.6 9.166666666666668C 20.064 9.166666666666668 22.176000000000002 4.166666666666668 24.64 4.166666666666668C 27.104 4.166666666666668 29.216 14.333333333333332 31.68 14.333333333333332C 34.144 14.333333333333332 36.256 19.416666666666664 38.72 19.416666666666664C 41.184 19.416666666666664 43.296 10.416666666666668 45.76 10.416666666666668C 48.224000000000004 10.416666666666668 50.336 19.083333333333336 52.800000000000004 19.083333333333336C 55.264 19.083333333333336 57.376000000000005 12.583333333333332 59.84 12.583333333333332C 62.304 12.583333333333332 64.416 18.25 66.88 18.25C 69.344 18.25 71.456 19.583333333333336 73.92 19.583333333333336C 76.384 19.583333333333336 78.49600000000001 14 80.96000000000001 14C 83.424 14 85.536 22.416666666666664 88 22.416666666666664C 88 22.416666666666664 88 22.416666666666664 88 25M 88 22.416666666666664z"
          pathFrom="M -1 35 L -1 35 L 10.56 35 L 17.6 35 L 24.64 35 L 31.68 35 L 38.72 35 L 45.76 35 L 52.800000000000004 35 L 59.84 35 L 66.88 35 L 73.92 35 L 80.96000000000001 35 L 88 35"></path>
        <path id="SvgjsPath12699"
          d="M 0 10C 3.6959999999999997 10 6.864000000000001 5.833333333333332 10.56 5.833333333333332C 13.024000000000001 5.833333333333332 15.136000000000001 9.166666666666668 17.6 9.166666666666668C 20.064 9.166666666666668 22.176000000000002 4.166666666666668 24.64 4.166666666666668C 27.104 4.166666666666668 29.216 14.333333333333332 31.68 14.333333333333332C 34.144 14.333333333333332 36.256 19.416666666666664 38.72 19.416666666666664C 41.184 19.416666666666664 43.296 10.416666666666668 45.76 10.416666666666668C 48.224000000000004 10.416666666666668 50.336 19.083333333333336 52.800000000000004 19.083333333333336C 55.264 19.083333333333336 57.376000000000005 12.583333333333332 59.84 12.583333333333332C 62.304 12.583333333333332 64.416 18.25 66.88 18.25C 69.344 18.25 71.456 19.583333333333336 73.92 19.583333333333336C 76.384 19.583333333333336 78.49600000000001 14 80.96000000000001 14C 83.424 14 85.536 22.416666666666664 88 22.416666666666664"
          fill="none" fill-opacity="1" stroke="#fb5454" stroke-opacity="1" stroke-linecap="butt"
          stroke-width="1" stroke-dasharray="0" class="apexcharts-area" index="0"
          clip-path="url(#gridRectMaskgu994ipe)"
          pathTo="M 0 10C 3.6959999999999997 10 6.864000000000001 5.833333333333332 10.56 5.833333333333332C 13.024000000000001 5.833333333333332 15.136000000000001 9.166666666666668 17.6 9.166666666666668C 20.064 9.166666666666668 22.176000000000002 4.166666666666668 24.64 4.166666666666668C 27.104 4.166666666666668 29.216 14.333333333333332 31.68 14.333333333333332C 34.144 14.333333333333332 36.256 19.416666666666664 38.72 19.416666666666664C 41.184 19.416666666666664 43.296 10.416666666666668 45.76 10.416666666666668C 48.224000000000004 10.416666666666668 50.336 19.083333333333336 52.800000000000004 19.083333333333336C 55.264 19.083333333333336 57.376000000000005 12.583333333333332 59.84 12.583333333333332C 62.304 12.583333333333332 64.416 18.25 66.88 18.25C 69.344 18.25 71.456 19.583333333333336 73.92 19.583333333333336C 76.384 19.583333333333336 78.49600000000001 14 80.96000000000001 14C 83.424 14 85.536 22.416666666666664 88 22.416666666666664"
          pathFrom="M -1 35 L -1 35 L 10.56 35 L 17.6 35 L 24.64 35 L 31.68 35 L 38.72 35 L 45.76 35 L 52.800000000000004 35 L 59.84 35 L 66.88 35 L 73.92 35 L 80.96000000000001 35 L 88 35"
          fill-rule="evenodd"></path>
        <g id="SvgjsG12692" class="apexcharts-series-markers-wrap apexcharts-hidden-element-shown"
          data:realIndex="0"></g>
      </g>
      <g id="SvgjsG12693" class="apexcharts-datalabels" data:realIndex="0"></g>
    </g>
    <g id="SvgjsG12714" class="apexcharts-xaxis" transform="translate(0, 0)">
      <g id="SvgjsG12715" class="apexcharts-xaxis-texts-g" transform="translate(0, -4)"></g>
    </g>
    <g id="SvgjsG12720" class="apexcharts-yaxis-annotations"></g>
    <g id="SvgjsG12721" class="apexcharts-xaxis-annotations"></g>
    <g id="SvgjsG12722" class="apexcharts-point-annotations"></g>
    <rect id="SvgjsRect12723" width="0" height="0" x="0" y="0" rx="0" ry="0" opacity="1"
      stroke-width="0" stroke="none" stroke-dasharray="0" fill="#fefefe"
      class="apexcharts-zoom-rect"></rect>
    <rect id="SvgjsRect12724" width="0" height="0" x="0" y="0" rx="0" ry="0" opacity="1"
      stroke-width="0" stroke="none" stroke-dasharray="0" fill="#fefefe"
      class="apexcharts-selection-rect"></rect>
  </g>
</svg>